<svg width="36" height="36" viewBox="0 0 36 36" fill="none" xmlns="http://www.w3.org/2000/svg">
<g id="image 3">
<g id="_x31_45">
<g id="Group">
<g id="Group_2">
<g id="Group_3">
<g id="Group_4">
<path id="Vector" d="M30.75 31.3081C25.7623 35.4009 10.1302 35.347 5.16954 31.2199C0.208951 27.0927 0.71849 9.67117 5.25581 5.06275C9.79305 0.454408 26.3295 0.511385 30.8363 5.15095C35.3431 9.79052 35.7377 27.2152 30.75 31.3081Z" fill="#E8E7EA"/>
</g>
</g>
<g id="Group_5">
<g id="Group_6">
<path id="Vector_2" d="M30.4737 27.5633C30.4737 27.5633 30.4737 27.5633 30.4736 27.5753C30.0622 28.3861 29.581 29.0413 29.0189 29.5052C28.2692 30.1236 27.2514 30.6218 26.047 31.0238C24.6438 31.4847 22.9841 31.8015 21.2197 31.9745H21.2081C20.0396 32.09 18.8363 32.1455 17.6216 32.1294L17.6099 32.1293C15.4374 32.098 13.2773 31.8517 11.3982 31.4033C9.53083 30.9548 7.94446 30.2925 6.90773 29.429C5.92922 28.6134 5.1863 27.1896 4.68985 25.4321L4.68992 25.4201C4.02018 23.0888 3.76105 20.1736 3.88739 17.3074C4.07702 12.9127 5.15397 8.66445 6.98229 6.80747C10.9084 2.83176 25.2053 2.88105 29.0934 6.8837C32.5443 10.4363 33.1415 22.332 30.4737 27.5633Z" fill="#59DDFC"/>
</g>
</g>
<g id="Group_7">
<path id="Vector_3" d="M31.9051 22.35C31.5092 25.5257 30.5541 28.2456 29.0198 29.5064C24.7097 33.0388 11.1953 32.9922 6.90863 29.4301C4.61377 27.5231 3.67306 22.3363 3.8883 17.3086C5.34028 19.7621 7.76308 21.789 10.5541 21.9897C11.9555 22.0901 13.405 21.7248 14.7469 22.1475C17.4424 22.9809 18.6922 26.5445 21.4232 27.2228C23.0688 27.6346 24.7885 26.8282 26.1585 25.8177C28.068 24.4212 29.4699 22.7653 31.9051 22.35Z" fill="#3EC4ED"/>
</g>
<g id="Group_8">
<g id="Group_9">
<path id="Vector_4" d="M26.3926 12.3734C26.3864 14.2516 24.8937 15.7677 23.0569 15.7614C21.2109 15.7551 19.7282 14.2286 19.7344 12.3505C19.7373 11.4677 20.0706 10.6613 20.6237 10.0528C21.2229 9.36936 22.1059 8.94975 23.0793 8.95315C24.7784 8.95896 26.1792 10.2692 26.3664 11.9695C26.3844 12.1011 26.3931 12.2325 26.3926 12.3734Z" fill="#FEDF18"/>
</g>
<g id="Group_10">
<path id="Vector_5" d="M26.3926 12.3733C26.3864 14.2515 24.8937 15.7677 23.0569 15.7614C21.2109 15.755 19.7282 14.2285 19.7344 12.3504C19.7373 11.4677 20.0706 10.6612 20.6237 10.0527C20.4284 10.7752 20.38 11.5357 20.4878 12.2779C20.5234 12.5973 20.5958 12.9168 20.7787 13.171C20.9615 13.4252 21.2823 13.6047 21.5764 13.54C21.99 13.4569 22.2579 12.9789 22.6712 12.9709C22.9559 12.9719 23.1848 13.1887 23.3769 13.396C23.5599 13.6125 23.752 13.848 24.018 13.924C24.4494 14.0382 24.8729 13.6828 25.1039 13.2892C25.3347 12.8956 25.4832 12.436 25.8331 12.1461C25.9713 12.0338 26.1552 11.9499 26.3297 11.96C26.3389 11.96 26.3573 11.96 26.3664 11.9695C26.3844 12.101 26.3931 12.2325 26.3926 12.3733Z" fill="#F4CE11"/>
</g>
</g>
<g id="Group_11">
<g id="Group_12">
<path id="Vector_6" d="M30.4741 27.562C30.4741 27.562 30.4741 27.562 30.4741 27.574C30.0626 28.3848 29.5815 29.04 29.0193 29.5039C28.2697 30.1223 27.2518 30.6205 26.0474 31.0225C24.6443 31.4834 22.9845 31.8002 21.2202 31.9732H21.2086C20.0401 32.0887 18.8368 32.1442 17.6221 32.1281L17.6104 32.128C17.6221 32.1042 17.634 32.0684 17.6457 32.0326C18.7127 28.4024 21.8901 19.5951 25.4858 20.6891C27.6287 21.1821 29.6805 25.5175 30.4741 27.562Z" fill="#ADE05C"/>
</g>
<g id="Group_13">
<path id="Vector_7" d="M26.2018 30.2347C26.2009 30.5094 26.1417 30.772 26.0474 31.0225C24.6443 31.4834 22.9845 31.8002 21.2202 31.9732H21.2086C20.0401 32.0887 18.8368 32.1442 17.6221 32.1281L17.6104 32.128C17.6221 32.1042 17.634 32.0684 17.6457 32.0326C18.7127 28.4024 21.8901 19.5951 25.4858 20.6891C25.6555 20.7281 25.9615 20.8576 26.0923 20.9419C25.0743 21.3455 24.6126 22.1035 24.6379 22.7643C24.6474 23.4332 25.1477 24.0322 25.1337 24.7129C25.1051 25.7276 24.2149 26.0395 25.4378 28.1658C25.7978 28.8 26.2043 29.4703 26.2018 30.2347Z" fill="#8FC740"/>
</g>
<g id="Group_14">
<g id="Group_15">
<path id="Vector_8" d="M21.2087 31.9748C20.0402 32.0903 18.8369 32.1458 17.6222 32.1297L17.6105 32.1296C15.438 32.0983 13.2779 31.852 11.3988 31.4036C9.53141 30.9551 7.94504 30.2928 6.90831 29.4293C5.9298 28.6137 5.18688 27.1899 4.69043 25.4324L4.6905 25.4204C5.91243 22.6461 7.05047 20.2769 9.09456 18.1976C9.12403 18.1381 9.86019 17.5043 10.3942 17.2585C10.6764 17.1023 10.977 17.0097 11.0024 17.0098C15.7306 15.5793 19.8906 27.2002 21.2087 31.9748Z" fill="#ADE05C"/>
</g>
</g>
<g id="Group_16">
<path id="Vector_9" d="M10.2724 18.7504C9.74365 19.716 9.6108 21.0414 10.2386 21.9513C10.5989 22.4899 11.2167 22.8743 11.3196 23.5435C11.434 24.2725 10.8596 24.9035 10.3093 25.2838C9.73569 25.664 9.08049 25.9963 8.80973 26.6522C8.49182 27.4036 8.76918 28.3003 9.23432 28.935C9.71111 29.5696 10.3287 30.0256 10.8408 30.6126C11.0502 30.8523 11.2479 31.1157 11.3988 31.4029C9.53141 30.9544 7.94504 30.2921 6.90831 29.4286C5.9298 28.6131 5.18688 27.1892 4.69043 25.4317L4.6905 25.4197C5.91243 22.6454 7.05047 20.2762 9.09456 18.1969C9.12403 18.1374 9.86019 17.5036 10.3942 17.2578C10.6764 17.1016 10.977 17.009 11.0024 17.0091C11.4028 16.8879 11.6453 16.8882 11.9139 16.8809C11.3745 17.5359 10.625 18.1067 10.2724 18.7504Z" fill="#8FC740"/>
</g>
</g>
</g>
<g id="Group_17">
<g id="Group_18">
<path id="Vector_10" d="M27.6801 24.7326C27.3489 24.1068 27.0634 23.5654 26.7388 23.2287C26.4356 22.8742 26.2443 22.6312 26.3009 22.5657C26.4074 22.442 27.3034 23.0219 27.6598 23.5406C27.8356 23.8158 28.063 24.1193 28.2189 24.4557C29.6803 27.7119 29.0969 27.901 27.6801 24.7326Z" fill="black"/>
</g>
</g>
<g id="Group_19">
<g id="Group_20">
<path id="Vector_11" d="M18.3294 27.2737C18.2276 27.2911 18.2149 26.9247 16.9658 24.72C16.685 24.2304 16.4103 23.6701 16.0829 23.1119C14.7344 20.8979 13.1485 19.461 13.267 19.3275C13.353 19.1966 15.1851 20.4801 16.5987 22.7944C16.9144 23.3319 17.8113 25.0984 18.0815 25.8653C18.3936 26.695 18.4102 27.2634 18.3294 27.2737Z" fill="black"/>
</g>
</g>
<g id="Group_21">
<g id="Group_22">
<path id="Vector_12" d="M7.28602 9.38984C7.22268 9.35211 7.43812 8.81986 8.04701 8.13372C9.56272 6.39637 12.073 5.52048 14.4326 5.43434C15.3324 5.4036 15.8842 5.48571 15.8853 5.56491C15.8872 5.65277 15.3399 5.7229 14.4746 5.8606C12.1903 6.22969 10.0972 6.8775 8.34878 8.43764C7.70016 9.007 7.36322 9.44135 7.28602 9.38984Z" fill="black"/>
</g>
</g>
<g id="Group_23">
<g id="Group_24">
<path id="Vector_13" d="M24.9719 11.9818C24.8981 12.026 24.7365 11.8775 24.5165 11.6544C24.4055 11.5448 24.2781 11.4194 24.13 11.3134C23.9763 11.218 23.8123 11.1236 23.6126 11.0689C23.2113 10.9631 22.7609 10.9812 22.4341 10.9457C22.1253 10.9057 21.9578 10.9257 21.9063 10.8584C21.849 10.7898 22.0467 10.5888 22.4004 10.5187C22.7224 10.45 23.1939 10.3414 23.77 10.4839C24.053 10.559 24.3062 10.7228 24.4924 10.8888C24.6745 11.0651 24.7888 11.2509 24.867 11.4082C25.0184 11.726 25.0413 11.9405 24.9719 11.9818Z" fill="black"/>
</g>
</g>
<g id="Group_25">
<g id="Group_26">
<path id="Vector_14" d="M27.0603 31.9528C27.0268 31.871 27.4857 31.627 28.1992 31.2304C28.9042 30.8286 29.8768 30.2546 30.5794 29.2822C31.7861 27.6382 32.2617 25.1727 32.5122 25.2396C32.6858 25.2858 32.2664 27.9985 31.0665 29.6424C30.2691 30.74 29.1513 31.3069 28.3844 31.6167C27.5987 31.9258 27.0899 32.0257 27.0603 31.9528Z" fill="black"/>
</g>
</g>
</g>
<g id="Group_27">
<path id="Vector_15" d="M5.05897 31.3533C10.1097 35.5553 25.7836 35.6089 30.8596 31.4425C35.9443 27.2702 35.5262 9.7306 30.961 5.03141C26.39 0.326048 9.74675 0.25658 5.13266 4.94149C0.505536 9.64156 0.0270107 27.166 5.05897 31.3533ZM5.37876 5.18488C9.84749 0.647017 26.2679 0.696118 30.7122 5.27209C35.1363 9.82615 35.5592 27.1386 30.6406 31.1748C25.768 35.1725 10.1262 35.1184 5.28072 31.0869C0.384905 27.0151 0.931641 9.70203 5.37876 5.18488Z" fill="#020202"/>
<path id="Vector_16" d="M4.52436 25.4806C4.93444 26.9347 5.6475 28.6161 6.82059 29.5807C10.6936 32.7737 21.2758 33.0214 26.6374 30.9911C28.9062 30.1343 29.8358 29.2198 30.6285 27.6555C33.237 22.7647 32.8041 10.4553 29.2189 6.7646C25.2557 2.68554 10.8487 2.64853 6.86022 6.68752C3.58319 10.0157 2.93032 19.9366 4.5176 25.4332C4.5176 25.4495 4.51963 25.465 4.52436 25.4806ZM7.01978 29.2971C5.9353 28.3941 5.25541 26.7967 4.87174 25.443C5.9484 22.976 8.03965 18.5675 10.4795 17.4123C10.5945 17.3446 10.8076 17.2401 10.9502 17.2115C10.9641 17.2046 10.9848 17.1908 10.9987 17.1839C11.1402 17.1839 12.4523 16.5625 14.1833 18.0769C15.4022 19.0671 16.6678 21.1312 17.3817 22.5215L17.7279 23.2C19.4279 26.7212 20.1908 29.3384 20.9883 31.8177C17.0295 32.1839 10.0706 31.8422 7.01978 29.2971ZM28.9093 29.3734C27.0594 30.9009 23.7081 31.5446 21.3334 31.7862C21.1144 30.9925 20.5154 29.0778 19.6941 26.8969C21.4387 22.8815 23.2248 20.77 24.8725 20.77C24.9418 20.7926 25.7897 20.6763 26.9148 21.8015C28.8042 23.6322 30.1285 27.2448 30.2861 27.561C29.941 28.2282 29.4891 28.8955 28.9093 29.3734ZM4.06124 17.3162C4.26474 12.6114 5.43166 8.63193 7.10632 6.93091C10.9653 3.02333 25.1474 3.06973 28.9701 7.00528C32.2222 10.3534 32.9727 21.7112 30.4828 27.1417C28.298 21.8129 26.4354 20.9916 26.3817 20.9223C25.9068 20.59 25.4314 20.4611 24.8725 20.4238C23.1002 20.4238 21.3072 22.4453 19.521 26.4399C18.1659 23.1148 18.0164 23.054 17.6933 22.3623C13.0455 13.4245 8.85065 15.6751 4.73441 24.899C4.18091 22.7336 3.93967 20.0689 4.06124 17.3162Z" fill="#020202"/>
<path id="Vector_17" d="M23.0559 15.936H23.0674C25.2157 15.936 26.8099 13.968 26.5377 11.9519C26.2038 8.91493 22.4665 7.68709 20.4956 9.93785C18.4387 12.1988 19.9905 15.9264 23.0559 15.936ZM20.7539 10.1684C22.5256 8.14437 25.892 9.24233 26.1943 11.9938C26.4409 13.8088 25.0043 15.5899 23.0674 15.5899C23.064 15.5899 23.0607 15.5899 23.0573 15.5899C20.2929 15.5813 18.893 12.2142 20.7539 10.1684Z" fill="#020202"/>
<path id="Vector_18" d="M23.0767 8.30161C23.172 8.30161 23.2505 8.22453 23.2505 8.12921L23.2545 6.87102C23.2545 6.77501 23.1774 6.69727 23.0821 6.69727C22.9868 6.69727 22.9084 6.77434 22.9084 6.86967L22.9043 8.12785C22.9043 8.22386 22.9814 8.30161 23.0767 8.30161Z" fill="#020202"/>
<path id="Vector_19" d="M22.8761 16.5862L22.8721 17.8444C22.8721 17.9404 22.9491 18.0181 23.0445 18.0181C23.1398 18.0181 23.2182 17.941 23.2182 17.8457L23.2223 16.5875C23.2223 16.3556 22.8761 16.3573 22.8761 16.5862Z" fill="#020202"/>
<path id="Vector_20" d="M25.3308 8.81958L25.965 7.74123C26.0808 7.54229 25.7812 7.36769 25.6662 7.56545L25.032 8.6438C24.9165 8.84223 25.2142 9.01649 25.3308 8.81958Z" fill="#020202"/>
<path id="Vector_21" d="M20.768 15.8936L20.1345 16.9712C20.0191 17.1697 20.3167 17.3439 20.4334 17.147L21.0669 16.0694C21.1826 15.8704 20.8831 15.6958 20.768 15.8936Z" fill="#020202"/>
<path id="Vector_22" d="M26.7675 10.5052L27.8526 9.91159C28.0525 9.80189 27.8885 9.498 27.6863 9.60735L26.6012 10.201C26.3991 10.3117 26.5669 10.6132 26.7675 10.5052Z" fill="#020202"/>
<path id="Vector_23" d="M19.3077 14.1925L18.2226 14.7861C18.0672 14.8713 18.1255 15.1113 18.3057 15.1113C18.3889 15.1113 18.3466 15.1046 19.474 14.4968C19.5578 14.4508 19.5883 14.3453 19.543 14.2615C19.4963 14.1777 19.3909 14.1479 19.3077 14.1925Z" fill="#020202"/>
<path id="Vector_24" d="M27.156 12.7055C27.2825 12.7115 26.6977 12.6836 28.3932 12.7643C28.4852 12.7643 28.5616 12.692 28.5663 12.5994C28.5704 12.5041 28.4967 12.4229 28.4013 12.4182L27.1722 12.3594C26.9215 12.3779 26.9457 12.695 27.156 12.7055Z" fill="#020202"/>
<path id="Vector_25" d="M17.6632 12.2524L18.8923 12.3112H18.9004C19.1241 12.3112 19.1321 11.9761 18.9085 11.9651L17.6794 11.9062C17.4284 11.9379 17.4549 12.2421 17.6632 12.2524Z" fill="#020202"/>
<path id="Vector_26" d="M26.5797 14.513C26.39 14.3839 26.1957 14.6719 26.385 14.7997L27.4106 15.4947C27.5999 15.6238 27.7949 15.3361 27.6053 15.208L26.5797 14.513Z" fill="#020202"/>
<path id="Vector_27" d="M19.5841 10.1584C19.7553 10.1584 19.8212 9.93633 19.6815 9.84202L18.6558 9.14768C18.465 9.0188 18.2724 9.3069 18.4611 9.43434C18.4611 9.43434 19.4877 10.1584 19.5841 10.1584Z" fill="#020202"/>
<path id="Vector_28" d="M24.9905 16.0484C24.8929 15.8436 24.5791 15.9873 24.6768 16.1958L25.2089 17.3296C25.3067 17.5363 25.6201 17.3901 25.5226 17.1822L24.9905 16.0484Z" fill="#020202"/>
<path id="Vector_29" d="M21.2513 8.66925C21.3798 8.66925 21.4613 8.53598 21.4081 8.42248L20.8753 7.28869C20.7804 7.08443 20.4634 7.22633 20.5616 7.43608C21.0944 8.48773 21.0548 8.66925 21.2513 8.66925Z" fill="#020202"/>
<path id="Vector_30" d="M8.3478 20.5746C7.24646 21.7436 6.40677 23.1769 5.91999 24.7197C5.90579 24.7657 5.93081 24.8143 5.97611 24.8285C6.02415 24.8432 6.07131 24.8157 6.08496 24.7724C6.5643 23.2539 7.38979 21.8436 8.47355 20.6936C8.55299 20.6093 8.42475 20.493 8.3478 20.5746Z" fill="#020202"/>
</g>
</g>
</g>
</svg>
