<svg width="28" height="28" viewBox="0 0 28 28" fill="none" xmlns="http://www.w3.org/2000/svg">
<g id="icomoon-free:credit-card">
<path id="Vector" d="M25.375 3.5H2.625C1.18125 3.5 0 4.68125 0 6.125V21.875C0 23.3188 1.18125 24.5 2.625 24.5H25.375C26.8188 24.5 28 23.3188 28 21.875V6.125C28 4.68125 26.8188 3.5 25.375 3.5ZM2.625 5.25H25.375C25.8493 5.25 26.25 5.65075 26.25 6.125V8.75H1.75V6.125C1.75 5.65075 2.15075 5.25 2.625 5.25ZM25.375 22.75H2.625C2.39392 22.7468 2.1732 22.6536 2.00979 22.4902C1.84637 22.3268 1.75317 22.1061 1.75 21.875V14H26.25V21.875C26.25 22.3493 25.8493 22.75 25.375 22.75ZM3.5 17.5H5.25V21H3.5V17.5ZM7 17.5H8.75V21H7V17.5ZM10.5 17.5H12.25V21H10.5V17.5Z" fill="#EAEDF5"/>
<rect id="Rectangle 218" x="3.5" y="17.5" width="1.78889" height="3.5" fill="#C5D1E0"/>
<rect id="Rectangle 219" x="7" y="17.5" width="1.78889" height="3.5" fill="#C5D1E0"/>
<rect id="Rectangle 221" x="10.5" y="17.5" width="1.78889" height="3.5" fill="#C5D1E0"/>
<rect id="Rectangle 220" x="1.71094" y="8.55469" width="24.5778" height="5.44444" fill="#C5D1E0"/>
</g>
</svg>
