<svg width="20" height="20" viewBox="0 0 20 20" fill="none" xmlns="http://www.w3.org/2000/svg">
<g id="Frame 2608148">
<g id="Group 36836">
<path id="Vector" d="M17.24 3.5825H16.84L13.46 0.2025C13.19 -0.0675 12.75 -0.0675 12.47 0.2025C12.2 0.4725 12.2 0.9125 12.47 1.1925L14.86 3.5825H5.14L7.53 1.1925C7.8 0.9225 7.8 0.4825 7.53 0.2025C7.26 -0.0675 6.82 -0.0675 6.54 0.2025L3.17 3.5825H2.77C1.87 3.5825 0 3.5825 0 6.1425C0 7.1125 0.2 7.7525 0.62 8.1725C0.86 8.4225 1.15 8.5525 1.46 8.6225C1.75 8.6925 2.06 8.7025 2.36 8.7025H17.64C17.95 8.7025 18.24 8.6825 18.52 8.6225C19.36 8.4225 20 7.8225 20 6.1425C20 3.5825 18.13 3.5825 17.24 3.5825Z" fill="black"/>
<path id="Vector_2" d="M17.0497 10.002H2.86967C2.24967 10.002 1.77967 10.552 1.87967 11.162L2.71967 16.302C2.99967 18.022 3.74967 20.002 7.07967 20.002H12.6897C16.0597 20.002 16.6597 18.312 17.0197 16.422L18.0297 11.192C18.1497 10.572 17.6797 10.002 17.0497 10.002ZM8.60967 16.452C8.60967 16.842 8.29967 17.152 7.91967 17.152C7.52967 17.152 7.21967 16.842 7.21967 16.452V13.152C7.21967 12.772 7.52967 12.452 7.91967 12.452C8.29967 12.452 8.60967 12.772 8.60967 13.152V16.452ZM12.8897 16.452C12.8897 16.842 12.5797 17.152 12.1897 17.152C11.8097 17.152 11.4897 16.842 11.4897 16.452V13.152C11.4897 12.772 11.8097 12.452 12.1897 12.452C12.5797 12.452 12.8897 12.772 12.8897 13.152V16.452Z" fill="black"/>
</g>
</g>
</svg>
