<svg width="185" height="180" viewBox="0 0 185 180" fill="none" xmlns="http://www.w3.org/2000/svg">
<g id="Frame" clip-path="url(#clip0_777_6901)">
<path id="Vector" d="M117.446 40.4812H67.5962C66.4603 40.4825 65.3712 40.933 64.5679 41.7336C63.7647 42.5343 63.3128 43.6198 63.3114 44.7521V155.185L62.7401 155.359L50.5112 159.092C49.9317 159.268 49.3057 159.208 48.7707 158.924C48.2357 158.641 47.8354 158.157 47.6576 157.58L11.2823 39.1458C11.1053 38.5681 11.1656 37.944 11.4501 37.4106C11.7345 36.8772 12.2197 36.4782 12.7992 36.3013L31.6438 30.5497L86.2752 13.8815L105.12 8.12994C105.407 8.04196 105.708 8.01122 106.007 8.03947C106.305 8.06772 106.596 8.15441 106.861 8.29458C107.126 8.43475 107.36 8.62564 107.551 8.85633C107.742 9.08703 107.886 9.353 107.973 9.63902L117.271 39.9117L117.446 40.4812Z" fill="#EAEDF5"/>
<path id="Vector_2" d="M128.323 39.9116L117.116 3.42605C116.93 2.81813 116.625 2.25279 116.219 1.76233C115.814 1.27188 115.315 0.865917 114.752 0.567648C114.189 0.26938 113.572 0.0846469 112.937 0.0240136C112.302 -0.0366197 111.662 0.0280345 111.052 0.214275L84.5576 8.29781L29.9291 24.9689L3.43472 33.0552C2.20393 33.432 1.17337 34.28 0.569252 35.4134C-0.0348663 36.5467 -0.16319 37.8726 0.212455 39.1001L38.513 163.793C38.8181 164.784 39.4339 165.651 40.2698 166.267C41.1058 166.884 42.1179 167.217 43.1578 167.218C43.6391 167.218 44.1176 167.146 44.5774 167.004L62.7393 161.464L63.3106 161.287V160.692L62.7393 160.866L44.4089 166.461C43.3225 166.791 42.1491 166.678 41.1461 166.147C40.1431 165.616 39.3924 164.71 39.0586 163.628L0.761028 38.9321C0.59566 38.3959 0.538025 37.8325 0.591421 37.2741C0.644817 36.7157 0.808191 36.1733 1.0722 35.6779C1.33621 35.1825 1.69566 34.7439 2.12997 34.3872C2.56428 34.0305 3.06491 33.7627 3.6032 33.5991L30.0976 25.5127L84.7262 8.8445L111.221 0.758118C111.629 0.633918 112.053 0.570591 112.48 0.570194C113.396 0.572245 114.288 0.866645 115.024 1.41027C115.76 1.9539 116.302 2.71819 116.571 3.5912L127.726 39.9116L127.903 40.4811H128.497L128.323 39.9116Z" fill="#BABEC8"/>
<path id="Vector_3" d="M35.0439 36.394C34.4933 36.3936 33.9574 36.2173 33.5147 35.8911C33.0719 35.5648 32.7458 35.1057 32.584 34.5812L28.9047 22.602C28.8058 22.2802 28.7715 21.9422 28.8037 21.6072C28.8359 21.2722 28.934 20.9468 29.0924 20.6496C29.2508 20.3524 29.4664 20.0892 29.7269 19.8751C29.9873 19.6609 30.2875 19.5 30.6104 19.4015L80.8681 4.06481C81.5201 3.86651 82.2243 3.93414 82.8263 4.25287C83.4283 4.57159 83.8789 5.11538 84.0791 5.76486L87.7584 17.7442C87.9572 18.394 87.8893 19.096 87.5695 19.696C87.2498 20.296 86.7043 20.7451 86.0528 20.9448L35.795 36.2815C35.5516 36.3559 35.2985 36.3939 35.0439 36.394Z" fill="#EA5660"/>
<path id="Vector_4" d="M54.3186 12.7994C57.4738 12.7994 60.0316 10.2499 60.0316 7.10479C60.0316 3.95973 57.4738 1.41016 54.3186 1.41016C51.1633 1.41016 48.6055 3.95973 48.6055 7.10479C48.6055 10.2499 51.1633 12.7994 54.3186 12.7994Z" fill="#EA5660"/>
<path id="Vector_5" d="M54.3179 10.712C56.3159 10.712 57.9356 9.09757 57.9356 7.10602C57.9356 5.11447 56.3159 3.5 54.3179 3.5C52.3199 3.5 50.7002 5.11447 50.7002 7.10602C50.7002 9.09757 52.3199 10.712 54.3179 10.712Z" fill="#EAEDF5"/>
<path id="Vector_6" d="M172.145 165.764H75.5941C74.9503 165.764 74.3332 165.508 73.878 165.055C73.4228 164.601 73.1668 163.986 73.166 163.344V48.0276C73.1667 47.386 73.4228 46.7708 73.878 46.3171C74.3332 45.8634 74.9503 45.6081 75.5941 45.6074H172.145C172.789 45.6082 173.406 45.8634 173.861 46.3171C174.316 46.7708 174.573 47.386 174.573 48.0276V163.344C174.572 163.986 174.316 164.601 173.861 165.055C173.406 165.508 172.789 165.763 172.145 165.764Z" fill="#EAEDF5"/>
<path id="Vector_7" d="M127.727 39.9121H67.5964C66.309 39.9139 65.0749 40.4245 64.1646 41.3318C63.2543 42.2392 62.7421 43.4693 62.7402 44.7526V160.866L63.3115 160.693V44.7526C63.3129 43.6202 63.7648 42.5347 64.5681 41.734C65.3713 40.9334 66.4604 40.483 67.5964 40.4816H127.904L127.727 39.9121ZM180.144 39.9121H67.5964C66.309 39.9139 65.0749 40.4245 64.1646 41.3318C63.2543 42.2392 62.7421 43.4693 62.7402 44.7526V175.16C62.7421 176.443 63.2543 177.673 64.1646 178.58C65.0749 179.488 66.309 179.998 67.5964 180H180.144C181.431 179.998 182.666 179.488 183.576 178.58C184.486 177.673 184.998 176.443 185 175.16V44.7526C184.998 43.4693 184.486 42.2392 183.576 41.3318C182.666 40.4245 181.431 39.9139 180.144 39.9121ZM184.429 175.16C184.428 176.292 183.976 177.378 183.172 178.178C182.369 178.979 181.28 179.429 180.144 179.431H67.5964C66.4604 179.429 65.3713 178.979 64.5681 178.178C63.7648 177.378 63.3129 176.292 63.3115 175.16V44.7526C63.3129 43.6202 63.7648 42.5347 64.5681 41.734C65.3713 40.9334 66.4604 40.483 67.5964 40.4816H180.144C181.28 40.483 182.369 40.9334 183.172 41.734C183.976 42.5347 184.428 43.6202 184.429 44.7526V175.16Z" fill="#BABEC8"/>
<path id="Vector_8" d="M150.15 52.4405H97.5894C96.9078 52.4397 96.2544 52.1695 95.7724 51.6891C95.2904 51.2087 95.0193 50.5573 95.0186 49.8779V37.3497C95.0193 36.6703 95.2904 36.0189 95.7724 35.5385C96.2544 35.0581 96.9078 34.7879 97.5894 34.7871H150.15C150.831 34.7879 151.485 35.0581 151.967 35.5385C152.449 36.0189 152.72 36.6703 152.721 37.3497V49.8779C152.72 50.5573 152.449 51.2087 151.967 51.6891C151.485 52.1695 150.831 52.4397 150.15 52.4405Z" fill="#EA5660"/>
<path id="Vector_9" d="M123.87 35.6412C127.026 35.6412 129.583 33.0917 129.583 29.9466C129.583 26.8015 127.026 24.252 123.87 24.252C120.715 24.252 118.157 26.8015 118.157 29.9466C118.157 33.0917 120.715 35.6412 123.87 35.6412Z" fill="#EA5660"/>
<path id="Vector_10" d="M123.87 33.4156C125.792 33.4156 127.35 31.8627 127.35 29.9471C127.35 28.0314 125.792 26.4785 123.87 26.4785C121.949 26.4785 120.391 28.0314 120.391 29.9471C120.391 31.8627 121.949 33.4156 123.87 33.4156Z" fill="#EAEDF5"/>
</g>
<defs>
<clipPath id="clip0_777_6901">
<rect width="185" height="180" fill="white"/>
</clipPath>
</defs>
</svg>
