<svg width="25" height="24" viewBox="0 0 25 24" fill="none" xmlns="http://www.w3.org/2000/svg">
<g id="healthicons:exercise-weights-outline">
<g id="Group">
<path id="Vector" fill-rule="evenodd" clip-rule="evenodd" d="M14.75 8.75C14.75 9.34674 14.5129 9.91903 14.091 10.341C13.669 10.7629 13.0967 11 12.5 11C11.9033 11 11.331 10.7629 10.909 10.341C10.4871 9.91903 10.25 9.34674 10.25 8.75C10.25 8.15326 10.4871 7.58097 10.909 7.15901C11.331 6.73705 11.9033 6.5 12.5 6.5C13.0967 6.5 13.669 6.73705 14.091 7.15901C14.5129 7.58097 14.75 8.15326 14.75 8.75ZM13.75 8.75C13.75 9.08152 13.6183 9.39946 13.3839 9.63388C13.1495 9.8683 12.8315 10 12.5 10C12.1685 10 11.8505 9.8683 11.6161 9.63388C11.3817 9.39946 11.25 9.08152 11.25 8.75C11.25 8.41848 11.3817 8.10054 11.6161 7.86612C11.8505 7.6317 12.1685 7.5 12.5 7.5C12.8315 7.5 13.1495 7.6317 13.3839 7.86612C13.6183 8.10054 13.75 8.41848 13.75 8.75Z" fill="#A0ACBA"/>
<path id="Vector_2" fill-rule="evenodd" clip-rule="evenodd" d="M5.00207 3.02909C5.13422 3.01802 5.26535 3.05989 5.36662 3.1455C5.46788 3.23111 5.531 3.35345 5.54207 3.48559L5.68557 5.17009C10.6991 4.28209 14.1866 4.27409 19.3146 5.17359L19.4576 3.48559C19.4631 3.42016 19.4815 3.35646 19.5117 3.29813C19.5418 3.2398 19.5832 3.18798 19.6334 3.14564C19.6836 3.10329 19.7416 3.07125 19.8042 3.05134C19.8668 3.03143 19.9326 3.02404 19.9981 3.02959L20.9946 3.11459C21.1266 3.12579 21.2488 3.18896 21.3343 3.29021C21.4198 3.39147 21.4616 3.52253 21.4506 3.65459L21.2861 5.58909C21.358 5.63925 21.4155 5.70744 21.4527 5.78683C21.49 5.86622 21.5057 5.95401 21.4983 6.04139C21.4909 6.12877 21.4607 6.21267 21.4106 6.28467C21.3605 6.35667 21.2924 6.41424 21.2131 6.45159L21.0381 8.51259C21.0325 8.57807 21.0141 8.64181 20.9839 8.70018C20.9537 8.75854 20.9123 8.81038 20.8621 8.85273C20.8118 8.89508 20.7537 8.92712 20.6911 8.947C20.6285 8.96688 20.5625 8.97421 20.4971 8.96859L19.5011 8.88359C19.369 8.87239 19.2468 8.80922 19.1613 8.70797C19.0758 8.60671 19.034 8.47565 19.0451 8.34359L19.2291 6.17359C18.9604 6.12612 18.6914 6.08045 18.4221 6.03659C18.4703 6.18601 18.4948 6.34208 18.4946 6.49909L18.4966 6.67409V6.67809C18.5031 7.25359 18.5206 8.77209 18.3421 10.2201C18.2421 11.0301 18.0676 11.9496 17.7271 12.7071C17.4726 13.2721 16.9501 14.1081 16.0001 14.3971V14.9411C16.3726 14.8091 16.7461 14.6836 17.0551 14.6061C17.2506 14.5561 17.6076 14.4741 17.9781 14.5071C18.3174 14.5341 18.6408 14.6623 18.9066 14.8751C19.0929 15.0268 19.2429 15.2183 19.3456 15.4356C19.4483 15.6528 19.5011 15.8903 19.5001 16.1306C19.5001 16.5921 19.3516 17.6886 19.2331 18.4691C19.1696 18.8881 19.1031 19.2881 19.0511 19.5596L19.0466 19.5816C19.0101 19.7716 18.9551 20.0551 18.8016 20.3131V20.3136L18.8006 20.3151C18.7656 20.3736 18.6081 20.6401 18.2826 20.8361C18.083 20.9563 17.8582 21.0285 17.626 21.0469C17.3937 21.0653 17.1604 21.0295 16.9443 20.9422C16.7283 20.855 16.5355 20.7187 16.3812 20.5442C16.2269 20.3697 16.1152 20.1617 16.0551 19.9366C15.9651 19.6051 15.9386 19.2591 15.9251 18.9496C15.9205 18.8496 15.9166 18.7496 15.9136 18.6496C15.9076 18.4771 15.9026 18.3196 15.8896 18.1641C15.4669 18.3128 15.0399 18.4488 14.6091 18.5721C13.9591 18.7546 13.2076 18.9201 12.5001 18.9201C11.7926 18.9201 11.0416 18.7551 10.3911 18.5721C9.96723 18.4508 9.54705 18.3171 9.13107 18.1711L9.12107 18.3016C9.09249 18.6795 9.06149 19.0571 9.02807 19.4346C9.01307 19.6181 8.98857 19.9046 8.87057 20.1656C8.7707 20.3869 8.6186 20.5806 8.42735 20.7302C8.23609 20.8797 8.01139 20.9806 7.77254 21.0242C7.5337 21.0678 7.28784 21.0527 7.0561 20.9803C6.82436 20.9079 6.61365 20.7804 6.44207 20.6086C6.07957 20.2461 6.03107 19.7946 6.00007 19.5096L5.99007 19.4226C5.98007 19.3386 5.96357 19.2286 5.94107 19.0926C5.90257 18.8541 5.85207 18.5726 5.79757 18.2666L5.77357 18.1331C5.70999 17.7845 5.65065 17.4351 5.59557 17.0851C5.55007 16.7866 5.50007 16.4211 5.50007 16.1306C5.50007 15.7111 5.66457 15.2241 6.09357 14.8756C6.3844 14.6418 6.74402 14.51 7.11707 14.5006C7.38107 14.4906 7.63207 14.5336 7.81357 14.5741C7.86307 14.5851 7.90707 14.5961 7.94507 14.6056C8.25407 14.6836 8.62707 14.8091 9.00007 14.9406V14.3891C8.93751 14.3685 8.87594 14.345 8.81557 14.3186C8.21207 14.0541 7.82007 13.5486 7.57757 13.1221C7.47801 12.9471 7.3908 12.7653 7.31657 12.5781C7.03657 11.8851 6.86807 11.0651 6.75857 10.3221C6.52007 8.70409 6.50007 6.99159 6.50007 6.49909C6.50007 6.33609 6.52607 6.17909 6.57407 6.03259C6.31057 6.07559 6.04307 6.12159 5.77057 6.17059L5.95507 8.34359C5.96615 8.47565 5.92434 8.60671 5.83884 8.70797C5.75333 8.80922 5.63113 8.87239 5.49907 8.88359L4.50257 8.96859C4.37051 8.97967 4.23945 8.93786 4.13819 8.85235C4.03694 8.76685 3.97377 8.64464 3.96257 8.51259L3.78757 6.45159C3.70797 6.41451 3.63955 6.35708 3.58925 6.28509C3.53894 6.21311 3.50853 6.12913 3.50107 6.04162C3.49361 5.95412 3.50938 5.8662 3.54678 5.78674C3.58418 5.70729 3.64189 5.63911 3.71407 5.58909L3.54957 3.65409C3.5385 3.52203 3.5803 3.39097 3.66581 3.28971C3.75131 3.18846 3.87352 3.12529 4.00557 3.11409L5.00207 3.02909ZM9.25057 5.67009C9.41368 5.91577 9.50049 6.2042 9.50007 6.49909C9.50007 6.95159 9.52057 8.48909 9.72657 9.88459C9.83007 10.5876 9.96607 11.1476 10.1166 11.4991H14.9801L14.9851 11.4876L14.9911 11.4756C15.1446 11.1341 15.2761 10.5726 15.3646 9.85309C15.5156 8.62809 15.5031 7.32659 15.4966 6.72309V6.72009L15.4951 6.49909C15.4951 6.19459 15.5851 5.91159 15.7411 5.67509C13.4911 5.44509 11.4676 5.44409 9.25057 5.67009ZM15.0001 14.3901V13.9891C15.0001 13.8651 15.0461 13.7456 15.1293 13.6537C15.2124 13.5618 15.3267 13.504 15.4501 13.4916C16.1311 13.4226 16.5606 12.8616 16.8151 12.2966C17.0936 11.6776 17.2536 10.8771 17.3501 10.0976C17.5196 8.72059 17.5031 7.25959 17.4966 6.68509V6.68259L17.4946 6.49909C17.4946 6.36648 17.4419 6.23931 17.3481 6.14554C17.2544 6.05177 17.1272 5.99909 16.9946 5.99909C16.862 5.99909 16.7348 6.05177 16.641 6.14554C16.5473 6.23931 16.4946 6.36648 16.4946 6.49909L16.4966 6.71259V6.71809C16.5026 7.32159 16.5166 8.68009 16.3571 9.97559C16.2651 10.7246 16.1191 11.4056 15.9031 11.8856C15.8001 12.1146 15.6996 12.2666 15.5966 12.3631C15.5039 12.4504 15.3814 12.499 15.2541 12.4991H9.81907C9.7409 12.4991 9.66381 12.4808 9.594 12.4456C9.52418 12.4105 9.46358 12.3594 9.41707 12.2966C9.33326 12.1777 9.26283 12.0499 9.20707 11.9156C9.00007 11.4416 8.84607 10.7706 8.73707 10.0306C8.52007 8.56059 8.50007 6.96509 8.50007 6.49909C8.50007 6.36648 8.44739 6.23931 8.35363 6.14554C8.25986 6.05177 8.13268 5.99909 8.00007 5.99909C7.86746 5.99909 7.74029 6.05177 7.64652 6.14554C7.55275 6.23931 7.50007 6.36648 7.50007 6.49909C7.50007 6.89659 7.51407 8.10259 7.64857 9.38359C7.67607 9.64659 7.70857 9.91359 7.74757 10.1766C7.86057 10.9431 8.03007 11.7196 8.29157 12.3166C8.51957 12.8376 8.91257 13.4206 9.55457 13.4916C9.67701 13.505 9.79018 13.5632 9.87239 13.6549C9.9546 13.7466 10.0001 13.8654 10.0001 13.9886V14.3901C10.1216 14.4266 10.2761 14.4696 10.4581 14.5126C10.9611 14.6306 11.6716 14.7491 12.5001 14.7491C13.1874 14.7485 13.8723 14.6691 14.5416 14.5126C14.7241 14.4696 14.8786 14.4266 15.0001 14.3901ZM10.0001 15.4286C10.8166 15.6403 11.6566 15.7478 12.5001 15.7486C13.3436 15.7478 14.1836 15.6403 15.0001 15.4286V15.6506C15.0001 15.7307 15.0193 15.8097 15.0562 15.8808C15.093 15.9519 15.1465 16.0131 15.2119 16.0593C15.2774 16.1055 15.353 16.1352 15.4324 16.1461C15.5118 16.1569 15.5926 16.1485 15.6681 16.1216L15.9431 16.0231C16.4541 15.8396 16.9386 15.6666 17.2996 15.5751C17.4826 15.5291 17.6991 15.4861 17.8896 15.5031C17.9866 15.5116 18.1396 15.5401 18.2756 15.6511C18.4346 15.7801 18.5001 15.9616 18.5001 16.1311C18.5001 16.4996 18.3671 17.5106 18.2446 18.3191C18.1925 18.6701 18.134 19.0202 18.0691 19.3691C18.0266 19.5881 17.9981 19.7086 17.9421 19.8026L17.9396 19.8066C17.889 19.8919 17.8144 19.9604 17.725 20.0033C17.6356 20.0463 17.5355 20.0619 17.4373 20.0481C17.3391 20.0343 17.2472 19.9918 17.1731 19.9258C17.0991 19.8599 17.0462 19.7735 17.0211 19.6776V19.6766C16.9611 19.4556 16.9371 19.2001 16.9236 18.9041C16.92 18.8209 16.9168 18.7378 16.9141 18.6546C16.9092 18.4314 16.897 18.2085 16.8776 17.9861L16.8201 17.4281C16.8121 17.3528 16.7872 17.2803 16.7472 17.216C16.7072 17.1518 16.6531 17.0975 16.589 17.0572C16.5249 17.0169 16.4525 16.9916 16.3773 16.9834C16.302 16.9752 16.2259 16.9841 16.1546 17.0096C15.5966 17.2096 14.9616 17.4346 14.3386 17.6096C13.7156 17.7846 13.0696 17.9201 12.5001 17.9201C11.9306 17.9201 11.2846 17.7846 10.6616 17.6096C10.0766 17.4446 9.48057 17.2361 8.94807 17.0461L8.84957 17.0111C8.77708 16.9852 8.69958 16.9763 8.62311 16.9853C8.54664 16.9942 8.47326 17.0207 8.40871 17.0626C8.34415 17.1046 8.29016 17.1609 8.25093 17.2271C8.21171 17.2934 8.18831 17.3678 8.18257 17.4446C8.16407 17.6896 8.14407 17.9606 8.12357 18.2246C8.09207 18.6311 8.06107 19.0246 8.03707 19.2866L8.03507 19.3091C8.01407 19.5416 8.00357 19.6571 7.95957 19.7536L7.95657 19.7606C7.92236 19.8333 7.87115 19.8967 7.80727 19.9454C7.74339 19.9941 7.66873 20.0267 7.58958 20.0405C7.51043 20.0543 7.42913 20.0488 7.35254 20.0246C7.27596 20.0003 7.20634 19.9579 7.14957 19.9011C7.04457 19.7961 7.03207 19.6971 6.98607 19.3281L6.98257 19.2991C6.96684 19.1766 6.94884 19.0544 6.92857 18.9326C6.88857 18.6851 6.83657 18.3961 6.78257 18.0936L6.75757 17.9571C6.69559 17.6168 6.63775 17.2758 6.58407 16.9341C6.53757 16.6306 6.50007 16.3351 6.50007 16.1306C6.50007 15.9616 6.56507 15.7806 6.72457 15.6506C6.82007 15.5731 6.92457 15.5356 7.01107 15.5176C7.04807 15.5096 7.08157 15.5056 7.11007 15.5026C7.30107 15.4861 7.51757 15.5291 7.70007 15.5751C7.79007 15.5981 7.88707 15.6251 7.99007 15.6571C8.28007 15.7461 8.61957 15.8661 8.97407 15.9931L9.33207 16.1216C9.40753 16.1485 9.48835 16.1569 9.56773 16.1461C9.64711 16.1352 9.72272 16.1055 9.7882 16.0593C9.85367 16.0131 9.9071 15.9519 9.94397 15.8808C9.98084 15.8097 10.0001 15.7307 10.0001 15.6506V15.4286Z" fill="#A0ACBA"/>
</g>
</g>
</svg>
