<svg width="20" height="20" viewBox="0 0 20 20" fill="none" xmlns="http://www.w3.org/2000/svg">
<g id="iconoir:group">
<g id="Group">
<path id="Vector" d="M0.833008 16.6667V15.8333C0.833008 14.2862 1.44759 12.8025 2.54155 11.7085C3.63551 10.6146 5.11924 10 6.66634 10C8.21344 10 9.69717 10.6146 10.7911 11.7085C11.8851 12.8025 12.4997 14.2862 12.4997 15.8333V16.6667" stroke="black" stroke-width="1.5" stroke-linecap="round"/>
<path id="Vector_2" d="M10.833 11.6667C10.833 10.5616 11.272 9.50179 12.0534 8.72039C12.8348 7.93899 13.8946 7.5 14.9997 7.5C15.5468 7.5 16.0887 7.60777 16.5942 7.81717C17.0997 8.02656 17.559 8.33348 17.946 8.72039C18.3329 9.1073 18.6398 9.56663 18.8492 10.0722C19.0586 10.5777 19.1663 11.1195 19.1663 11.6667V12.0833" stroke="black" stroke-width="1.5" stroke-linecap="round"/>
<path id="Vector_3" d="M6.66634 10C7.5504 10 8.39824 9.64881 9.02336 9.02369C9.64848 8.39857 9.99967 7.55072 9.99967 6.66667C9.99967 5.78261 9.64848 4.93477 9.02336 4.30964C8.39824 3.68452 7.5504 3.33333 6.66634 3.33333C5.78229 3.33333 4.93444 3.68452 4.30932 4.30964C3.6842 4.93477 3.33301 5.78261 3.33301 6.66667C3.33301 7.55072 3.6842 8.39857 4.30932 9.02369C4.93444 9.64881 5.78229 10 6.66634 10ZM14.9997 7.5C15.6627 7.5 16.2986 7.23661 16.7674 6.76777C17.2363 6.29893 17.4997 5.66304 17.4997 5C17.4997 4.33696 17.2363 3.70107 16.7674 3.23223C16.2986 2.76339 15.6627 2.5 14.9997 2.5C14.3366 2.5 13.7007 2.76339 13.2319 3.23223C12.7631 3.70107 12.4997 4.33696 12.4997 5C12.4997 5.66304 12.7631 6.29893 13.2319 6.76777C13.7007 7.23661 14.3366 7.5 14.9997 7.5Z" stroke="black" stroke-width="1.5" stroke-linecap="round" stroke-linejoin="round"/>
</g>
</g>
</svg>
