<svg width="99" height="94" viewBox="0 0 99 94" fill="none" xmlns="http://www.w3.org/2000/svg">
<g id="1F3CB-FE0F-200D-2642-FE0F 1">
<g id="skin">
<path id="Vector" d="M49.3753 16.4271C52.6408 16.4271 55.288 13.6823 55.288 10.2965C55.288 6.91075 52.6408 4.16602 49.3753 4.16602C46.1098 4.16602 43.4626 6.91075 43.4626 10.2965C43.4626 13.6823 46.1098 16.4271 49.3753 16.4271Z" fill="#EAEDF5"/>
<path id="Vector_2" d="M49.3024 25.482L49.3377 63.3709C49.3377 63.3709 43.5718 63.9246 42.6053 65.3469C39.9328 69.2806 40.4108 91.3649 40.4108 91.3649L34.3247 90.4168L30.4235 58.3641L39.6765 51.3896C39.6765 51.3896 36.811 40.3466 35.8708 35.722C35.3624 33.2248 33.4349 33.0531 32.6866 33.7337C31.7307 34.6021 29.0859 40.373 25.4831 40.373C21.8802 40.373 19.88 39.3369 18.878 37.6755C16.2765 33.3189 12.6758 19.0019 12.6758 19.0019L17.6777 17.9658L21.6795 33.1125L24.4822 34.9803L30.6864 27.3027L37.6888 24.3969L49.3024 25.482Z" fill="#EAEDF5"/>
<path id="Vector_3" d="M49.0898 25.482L49.1234 63.3709C49.1234 63.3709 54.833 63.9246 55.7988 65.3469C58.4711 69.2806 57.9933 91.3649 57.9933 91.3649L64.0794 90.4168L67.9806 58.3641L58.7274 51.3896C58.7274 51.3896 61.5931 40.3466 62.5331 35.722C63.0417 33.2248 64.9692 33.0531 65.7173 33.7337C66.6732 34.6021 69.318 40.373 72.9208 40.373C76.5237 40.373 78.5239 39.3369 79.5258 37.6755C82.1272 33.3189 85.7281 19.0019 85.7281 19.0019L80.7259 17.9658L76.7242 33.1125L73.9217 34.9803L67.7175 27.3027L60.7149 24.3969L49.0898 25.482Z" fill="#EAEDF5"/>
</g>
<g id="color">
<path id="Vector_4" d="M9.95761 36.6577C9.9323 37.1782 9.71874 37.6718 9.35642 38.0475C8.9941 38.4232 8.50752 38.6554 7.98665 38.7013H4.04494C3.52406 38.6554 3.03748 38.4232 2.67516 38.0475C2.31284 37.6718 2.09928 37.1782 2.07397 36.6577V3.96155C2.09924 3.44113 2.31278 2.94743 2.67511 2.57175C3.03744 2.19607 3.52405 1.96383 4.04494 1.91797H7.98665C8.50753 1.96383 8.99414 2.19607 9.35647 2.57175C9.7188 2.94743 9.93234 3.44113 9.95761 3.96155V36.6577Z" fill="#6713ED"/>
<path id="Vector_5" d="M96.6756 36.6577C96.6503 37.1782 96.4367 37.6718 96.0744 38.0475C95.7121 38.4232 95.2255 38.6554 94.7047 38.7013H90.763C90.2421 38.6554 89.7555 38.4232 89.3932 38.0475C89.0309 37.6718 88.8173 37.1782 88.792 36.6577V3.96155C88.8173 3.44113 89.0308 2.94743 89.3931 2.57175C89.7555 2.19607 90.2421 1.96383 90.763 1.91797H94.7047C95.2256 1.96383 95.7122 2.19607 96.0745 2.57175C96.4368 2.94743 96.6504 3.44113 96.6756 3.96155V36.6577Z" fill="#6713ED"/>
</g>
<g id="line">
<path id="Vector_6" d="M9.95761 36.6577C9.9323 37.1782 9.71874 37.6718 9.35642 38.0475C8.9941 38.4232 8.50752 38.6554 7.98665 38.7013H4.04494C3.52406 38.6554 3.03748 38.4232 2.67516 38.0475C2.31284 37.6718 2.09928 37.1782 2.07397 36.6577V3.96155C2.09924 3.44113 2.31278 2.94743 2.67511 2.57175C3.03744 2.19607 3.52405 1.96383 4.04494 1.91797H7.98665C8.50753 1.96383 8.99414 2.19607 9.35647 2.57175C9.7188 2.94743 9.93234 3.44113 9.95761 3.96155V36.6577Z" stroke="black" stroke-width="2.04" stroke-linecap="round" stroke-linejoin="round"/>
<path id="Vector_7" d="M96.6754 36.6577C96.6502 37.1781 96.4366 37.6718 96.0743 38.0475C95.7121 38.4232 95.2255 38.6554 94.7047 38.7013H90.763C90.2421 38.6554 89.7555 38.4232 89.3932 38.0475C89.0309 37.6718 88.8173 37.1782 88.792 36.6577V3.96155C88.8173 3.44113 89.0308 2.94743 89.3931 2.57175C89.7555 2.19607 90.2421 1.96383 90.763 1.91797H94.7047C95.2255 1.96383 95.7121 2.19608 96.0744 2.57177C96.4367 2.94745 96.6502 3.44115 96.6754 3.96155V36.6577Z" stroke="black" stroke-width="2.04" stroke-linecap="round" stroke-linejoin="round"/>
<path id="Vector_8" d="M61.1997 18.2646C69.0833 18.2646 88.7923 20.3082 88.7923 20.3082" stroke="black" stroke-width="2.05" stroke-linecap="round" stroke-linejoin="round"/>
<path id="Vector_9" d="M9.95728 20.3087C19.1013 19.0379 28.318 18.3553 37.5501 18.2651" stroke="black" stroke-width="2.03" stroke-linecap="round" stroke-linejoin="round"/>
<path id="Vector_10" d="M49.3753 16.4271C52.94 16.4271 55.8297 13.5478 55.8297 9.99601C55.8297 6.44423 52.94 3.56494 49.3753 3.56494C45.8106 3.56494 42.9209 6.44423 42.9209 9.99601C42.9209 13.5478 45.8106 16.4271 49.3753 16.4271Z" stroke="black" stroke-width="2.04" stroke-miterlimit="10"/>
<path id="Vector_11" d="M17.8416 20.3096L21.9803 32.9788C22.9659 36.2483 25.3308 36.4528 27.3018 33.7962L30.2581 29.5047C31.3496 28.1084 32.7589 26.9909 34.3696 26.2447C35.9803 25.4985 37.7461 25.145 39.5211 25.2135L43.4628 25.8266C47.3939 26.2352 51.357 26.2352 55.2881 25.8266L59.2298 25.2135C61.0134 25.0786 62.8018 25.4024 64.4237 26.1538C66.0457 26.9052 67.4468 28.059 68.4928 29.5047L71.4491 33.7962C73.4201 36.4528 75.785 36.2483 76.7706 32.9788L80.9093 20.3096" stroke="black" stroke-width="2.04" stroke-linecap="round" stroke-linejoin="round"/>
<path id="Vector_12" d="M37.5491 34.6144C37.5491 34.6144 37.9428 36.8623 38.5355 39.7233C39.1158 42.7567 39.4451 45.8325 39.52 48.9197C39.5937 49.5637 39.5331 50.216 39.3422 50.8357C39.1513 51.4554 38.8341 52.0291 38.4105 52.5211C36.7524 53.8327 34.9683 54.9779 33.0841 55.9398C32.2394 56.551 31.5749 57.3771 31.1602 58.3316C30.7454 59.2862 30.5956 60.3342 30.7263 61.3662L33.8046 87.4802C33.7718 88.5403 34.1376 89.5744 34.8303 90.3797C35.523 91.1851 36.4926 91.7036 37.5491 91.8336C39.7169 91.8336 40.8838 90.3544 40.8838 88.1063C40.8838 88.1063 40.8942 71.3086 41.0807 69.1893C41.1713 67.7922 41.6213 66.4417 42.3873 65.2679C42.9826 64.5073 43.7992 63.9485 44.7253 63.6678C46.106 63.2899 47.5318 63.1008 48.9637 63.1058C50.4309 63.1012 51.8923 63.2902 53.3097 63.6678C54.2353 63.9496 55.0515 64.5082 55.6477 65.2679C56.412 66.4423 56.8612 67.7925 56.9521 69.1893C57.1408 71.3086 57.1489 88.1063 57.1489 88.1063C57.1489 90.3542 58.3159 91.8336 60.4837 91.8336C61.5403 91.7035 62.51 91.1851 63.2031 90.38C63.8962 89.5749 64.2627 88.541 64.2309 87.4808L67.3076 61.3668C67.4388 60.3347 67.2893 59.2865 66.8747 58.3317C66.4602 57.3769 65.7958 56.5506 64.951 55.9392C63.0665 54.9768 61.2818 53.8317 59.6227 52.5204C59.199 52.0285 58.8818 51.4548 58.6908 50.8351C58.4999 50.2154 58.4393 49.5631 58.513 48.919C58.5877 45.8318 58.9177 42.7559 59.4996 39.7226C60.0902 36.8616 60.4839 34.6138 60.4839 34.6138" stroke="black" stroke-width="2" stroke-linecap="round" stroke-linejoin="round"/>
</g>
</g>
</svg>
