<svg width="22" height="22" viewBox="0 0 22 22" fill="none" xmlns="http://www.w3.org/2000/svg">
<g id="ph:heart-fill">
<path id="Vector" d="M11.0918 18.7222L11.0918 18.7222L11.0888 18.7237C11.0615 18.7384 11.031 18.7461 11 18.7461C10.969 18.7461 10.9385 18.7384 10.9112 18.7237L10.9082 18.7222C10.7352 18.6306 8.44802 17.3839 6.21162 15.4254C3.94893 13.4438 1.87514 10.8521 1.875 8.0784C1.87652 6.7983 2.38571 5.57106 3.29088 4.66588C4.19606 3.76071 5.4233 3.25152 6.7034 3.25C8.33178 3.25008 9.73264 3.94785 10.6002 5.10326L11 5.63579L11.3998 5.10326C12.2674 3.94785 13.6682 3.25008 15.2966 3.25C16.5767 3.25152 17.8039 3.76071 18.7091 4.66588C19.6144 5.57113 20.1236 6.79848 20.125 8.07869C20.1247 10.8523 18.051 13.4439 15.7884 15.4254C13.552 17.3839 11.2648 18.6306 11.0918 18.7222Z" stroke="#696969"/>
</g>
</svg>
