<svg width="20" height="20" viewBox="0 0 20 20" fill="none" xmlns="http://www.w3.org/2000/svg">
<g id="icon-park-outline:order">
<g id="Group">
<path id="Vector" d="M13.7705 2.91602H15.833C16.054 2.91602 16.266 3.00381 16.4223 3.16009C16.5785 3.31637 16.6663 3.52834 16.6663 3.74935V17.4993C16.6663 17.7204 16.5785 17.9323 16.4223 18.0886C16.266 18.2449 16.054 18.3327 15.833 18.3327H4.16634C3.94533 18.3327 3.73337 18.2449 3.57709 18.0886C3.42081 17.9323 3.33301 17.7204 3.33301 17.4993V3.74935C3.33301 3.52834 3.42081 3.31637 3.57709 3.16009C3.73337 3.00381 3.94533 2.91602 4.16634 2.91602H7.08301V4.16602H12.9163V2.91602H13.7705Z" stroke="black" stroke-width="1.16667" stroke-linejoin="round"/>
<path id="Vector_2" d="M11.2497 7.91602L7.91634 11.2498H12.0847L8.74967 14.5831M7.08301 1.66602H12.9163V4.16602H7.08301V1.66602Z" stroke="black" stroke-width="1.16667" stroke-linecap="round" stroke-linejoin="round"/>
</g>
</g>
</svg>
