<svg width="20" height="20" viewBox="0 0 20 20" fill="none" xmlns="http://www.w3.org/2000/svg">
<g id="Group">
<path id="Exclude" fill-rule="evenodd" clip-rule="evenodd" d="M13.8498 0.50016C14.4808 0.50016 15.1108 0.58916 15.7098 0.79016C19.4008 1.99016 20.7308 6.04016 19.6198 9.58016C18.9898 11.3892 17.9598 13.0402 16.6108 14.3892C14.6798 16.2592 12.5608 17.9192 10.2798 19.3492L10.0298 19.5002L9.76977 19.3392C7.48077 17.9192 5.34977 16.2592 3.40077 14.3792C2.06077 13.0302 1.02977 11.3892 0.389772 9.58016C-0.740228 6.04016 0.589773 1.99016 4.32077 0.76916C4.61077 0.66916 4.90977 0.59916 5.20977 0.56016H5.32977C5.61077 0.51916 5.88977 0.50016 6.16977 0.50016H6.27977C6.90977 0.51916 7.51977 0.62916 8.11077 0.83016H8.16977C8.20977 0.84916 8.23977 0.87016 8.25977 0.88916C8.48077 0.96016 8.68977 1.04016 8.88977 1.15016L9.26977 1.32016C9.36159 1.36913 9.46466 1.44396 9.55373 1.50863C9.61017 1.5496 9.66099 1.5865 9.69977 1.61016C9.71609 1.61979 9.73268 1.62947 9.7494 1.63923C9.83514 1.68928 9.92446 1.74142 9.99977 1.79916C11.1108 0.95016 12.4598 0.49016 13.8498 0.50016ZM16.5098 7.70016C16.9198 7.68916 17.2698 7.36016 17.2998 6.93916V6.82016C17.3298 5.41916 16.4808 4.15016 15.1898 3.66016C14.7798 3.51916 14.3298 3.74016 14.1798 4.16016C14.0398 4.58016 14.2598 5.04016 14.6798 5.18916C15.3208 5.42916 15.7498 6.06016 15.7498 6.75916V6.79016C15.7308 7.01916 15.7998 7.24016 15.9398 7.41016C16.0798 7.58016 16.2898 7.67916 16.5098 7.70016Z" fill="#EA5660"/>
</g>
</svg>
