<svg width="12" height="12" viewBox="0 0 12 12" fill="none" xmlns="http://www.w3.org/2000/svg">
<g id="bi:shield-lock-fill" clip-path="url(#clip0_169_6153)">
<path id="Vector" fill-rule="evenodd" clip-rule="evenodd" d="M6 0C5.4825 0 4.61775 0.19875 3.804 0.42C2.9715 0.645 2.13225 0.91125 1.63875 1.0725C1.43242 1.14064 1.2495 1.2656 1.11099 1.43303C0.972486 1.60045 0.884019 1.80355 0.855754 2.019C0.408754 5.37675 1.446 7.86525 2.7045 9.5115C3.23819 10.2157 3.87453 10.8359 4.59225 11.3512C4.88175 11.556 5.15025 11.7128 5.37825 11.82C5.58825 11.919 5.814 12 6 12C6.186 12 6.411 11.919 6.62175 11.82C6.89662 11.6864 7.15957 11.5296 7.40775 11.3512C8.1255 10.8359 8.76184 10.2157 9.2955 9.5115C10.554 7.86525 11.5913 5.37675 11.1443 2.019C11.116 1.80345 11.0276 1.60023 10.8891 1.43267C10.7506 1.26512 10.5676 1.14002 10.3613 1.07175C9.64486 0.83686 8.9229 0.619297 8.19601 0.41925C7.38226 0.1995 6.5175 0 6 0ZM6 3.75C6.26568 3.7496 6.52293 3.84325 6.72618 4.01435C6.92943 4.18544 7.06557 4.42295 7.11049 4.68481C7.1554 4.94666 7.10619 5.21597 6.97158 5.44502C6.83696 5.67407 6.62563 5.84809 6.375 5.93625L6.66375 7.42875C6.67426 7.48303 6.67263 7.53897 6.65898 7.59255C6.64534 7.64613 6.62001 7.69603 6.58482 7.73868C6.54963 7.78133 6.50544 7.81566 6.45542 7.83923C6.40541 7.8628 6.3508 7.87501 6.2955 7.875H5.7045C5.64928 7.8749 5.59475 7.86261 5.54483 7.83899C5.4949 7.81537 5.45081 7.78102 5.4157 7.73839C5.38059 7.69576 5.35533 7.6459 5.34173 7.59237C5.32812 7.53884 5.32651 7.48297 5.337 7.42875L5.625 5.93625C5.37438 5.84809 5.16304 5.67407 5.02843 5.44502C4.89381 5.21597 4.84461 4.94666 4.88952 4.68481C4.93444 4.42295 5.07058 4.18544 5.27383 4.01435C5.47708 3.84325 5.73432 3.7496 6 3.75Z" fill="#8497AF"/>
</g>
<defs>
<clipPath id="clip0_169_6153">
<rect width="12" height="12" fill="white"/>
</clipPath>
</defs>
</svg>
