<svg width="33" height="26" viewBox="0 0 33 26" fill="none" xmlns="http://www.w3.org/2000/svg">
<g id="Frame" clip-path="url(#clip0_169_5774)">
<path id="Vector" d="M5.99963 25.8706V24.1498C5.99963 23.49 5.60337 23.0599 4.92416 23.0599C4.58462 23.0599 4.21672 23.1746 3.962 23.5475C3.764 23.232 3.48105 23.0599 3.05657 23.0599C2.77349 23.0599 2.49067 23.1459 2.26418 23.4614V23.1173H1.66992V25.8706H2.26418V24.3505C2.26418 23.863 2.5189 23.6335 2.91516 23.6335C3.31116 23.6335 3.50941 23.8916 3.50941 24.3505V25.8706H4.10367V24.3505C4.10367 23.863 4.38649 23.6335 4.75439 23.6335C5.15065 23.6335 5.34865 23.8916 5.34865 24.3505V25.8706H5.99963ZM14.8002 23.1173H13.8382V22.2855H13.2439V23.1173H12.7062V23.6621H13.2438V24.9242C13.2438 25.5552 13.4985 25.928 14.1777 25.928C14.4324 25.928 14.7152 25.842 14.9135 25.7273L14.7436 25.211C14.5738 25.3257 14.3758 25.3544 14.2343 25.3544C13.9513 25.3544 13.8382 25.1824 13.8382 24.8954V23.6621H14.8002V23.1173ZM19.8373 23.0598C19.4978 23.0598 19.2714 23.232 19.1299 23.4614V23.1173H18.5356V25.8706H19.1299V24.3219C19.1299 23.863 19.3279 23.6049 19.6958 23.6049C19.809 23.6049 19.9505 23.6336 20.0637 23.6622L20.2335 23.0886C20.1203 23.0599 19.9505 23.0599 19.8373 23.0599V23.0598ZM12.2252 23.3467C11.9421 23.1459 11.5459 23.0599 11.1215 23.0599C10.4424 23.0599 9.98966 23.404 9.98966 23.949C9.98966 24.408 10.3292 24.666 10.9235 24.7521L11.2064 24.7809C11.5177 24.8381 11.6875 24.9242 11.6875 25.0676C11.6875 25.2683 11.4611 25.4118 11.0649 25.4118C10.6687 25.4118 10.3574 25.2683 10.1593 25.125L9.87635 25.5839C10.1877 25.8133 10.6121 25.928 11.0365 25.928C11.8289 25.928 12.2817 25.5552 12.2817 25.0389C12.2817 24.5513 11.9138 24.2931 11.3478 24.2072L11.0649 24.1784C10.8101 24.1497 10.6121 24.0924 10.6121 23.9204C10.6121 23.7196 10.8101 23.6049 11.1215 23.6049C11.4611 23.6049 11.8007 23.7482 11.9704 23.8343L12.2252 23.3467ZM28.0155 23.0599C27.6759 23.0599 27.4495 23.232 27.308 23.4614V23.1173H26.7137V25.8706H27.308V24.3219C27.308 23.863 27.5061 23.6049 27.8739 23.6049C27.9872 23.6049 28.1287 23.6336 28.2419 23.6622L28.4117 23.0886C28.2985 23.0599 28.1287 23.0599 28.0155 23.0599ZM20.4316 24.4939C20.4316 25.3257 20.9975 25.928 21.8748 25.928C22.2709 25.928 22.5539 25.842 22.8368 25.6126L22.5539 25.125C22.3275 25.2971 22.1012 25.383 21.8465 25.383C21.3654 25.383 21.0258 25.0389 21.0258 24.4939C21.0258 23.9777 21.3654 23.6335 21.8465 23.6049C22.1012 23.6049 22.3275 23.6908 22.5539 23.863L22.8368 23.3754C22.5539 23.1459 22.2709 23.0599 21.8748 23.0599C20.9975 23.0599 20.4316 23.6622 20.4316 24.4939ZM25.9214 24.4939V23.1173H25.3272V23.4614C25.1291 23.2034 24.8461 23.0599 24.4782 23.0599C23.7142 23.0599 23.1199 23.6622 23.1199 24.4939C23.1199 25.3257 23.7142 25.928 24.4782 25.928C24.8743 25.928 25.1574 25.7847 25.3272 25.5265V25.8706H25.9214V24.4939ZM23.7424 24.4939C23.7424 24.0063 24.0537 23.6049 24.563 23.6049C25.0441 23.6049 25.3838 23.9777 25.3838 24.4939C25.3838 24.9815 25.0441 25.383 24.563 25.383C24.0537 25.3543 23.7424 24.9815 23.7424 24.4939ZM16.6397 23.0599C15.8473 23.0599 15.2813 23.6335 15.2813 24.4939C15.2813 25.3544 15.8472 25.928 16.6679 25.928C17.064 25.928 17.4603 25.8133 17.7716 25.5552L17.4885 25.125C17.2622 25.2971 16.9792 25.4118 16.6963 25.4118C16.3284 25.4118 15.9605 25.2397 15.8755 24.752H17.8848V24.5227C17.9131 23.6335 17.4037 23.0599 16.6395 23.0599H16.6397ZM16.6397 23.5761C17.0074 23.5761 17.2623 23.8057 17.3188 24.2359H15.9039C15.9605 23.863 16.2152 23.5761 16.6397 23.5761ZM31.3829 24.4939V22.0273H30.7887V23.4614C30.5906 23.2034 30.3076 23.0599 29.9397 23.0599C29.1757 23.0599 28.5814 23.6622 28.5814 24.4939C28.5814 25.3257 29.1757 25.928 29.9397 25.928C30.336 25.928 30.6189 25.7847 30.7887 25.5265V25.8706H31.3829V24.4939ZM29.204 24.4939C29.204 24.0063 29.5152 23.6049 30.0247 23.6049C30.5057 23.6049 30.8453 23.9777 30.8453 24.4939C30.8453 24.9815 30.5057 25.383 30.0247 25.383C29.5152 25.3543 29.204 24.9815 29.204 24.4939ZM9.33868 24.4939V23.1173H8.74443V23.4614C8.5463 23.2034 8.26335 23.0599 7.89545 23.0599C7.13142 23.0599 6.53716 23.6622 6.53716 24.4939C6.53716 25.3257 7.13142 25.928 7.89545 25.928C8.29171 25.928 8.57466 25.7847 8.74443 25.5265V25.8706H9.33868V24.4939ZM7.13142 24.4939C7.13142 24.0063 7.44273 23.6049 7.95204 23.6049C8.43312 23.6049 8.77279 23.9777 8.77279 24.4939C8.77279 24.9815 8.43312 25.383 7.95204 25.383C7.44273 25.3543 7.13142 24.9815 7.13142 24.4939Z" fill="black"/>
<path id="Vector_2" d="M12.0273 2.20898H20.9412V18.4428H12.0273V2.20898Z" fill="#FF5F00"/>
<path id="Vector_3" d="M12.5927 10.3254C12.5927 7.02706 14.1208 4.10147 16.4694 2.20843C14.7434 0.831739 12.5645 0 10.1875 0C4.55593 0 0 4.61768 0 10.3254C0 16.033 4.55593 20.6508 10.1873 20.6508C12.5644 20.6508 14.7433 19.8191 16.4694 18.4422C14.1208 16.5779 12.5927 13.6237 12.5927 10.3254Z" fill="#EB001B"/>
<path id="Vector_4" d="M32.9673 10.3254C32.9673 16.033 28.4113 20.6508 22.7799 20.6508C20.4029 20.6508 18.224 19.8191 16.4978 18.4422C18.8748 16.5493 20.3747 13.6237 20.3747 10.3254C20.3747 7.02706 18.8465 4.10147 16.4978 2.20843C18.2239 0.831739 20.4029 0 22.7799 0C28.4113 0 32.9674 4.64642 32.9674 10.3254H32.9673Z" fill="#F79E1B"/>
</g>
<defs>
<clipPath id="clip0_169_5774">
<rect width="33" height="26" fill="white"/>
</clipPath>
</defs>
</svg>
