<svg width="36" height="36" viewBox="0 0 36 36" fill="none" xmlns="http://www.w3.org/2000/svg">
<g id="Group">
<path id="Union" fill-rule="evenodd" clip-rule="evenodd" d="M21.4771 17.0169H26.3076C27.0401 17.0169 27.6155 16.4104 27.6155 15.6789C27.6155 14.9296 27.0401 14.3409 26.3076 14.3409H21.4771C20.7446 14.3409 20.1692 14.9296 20.1692 15.6789C20.1692 16.4104 20.7446 17.0169 21.4771 17.0169ZM32.045 7.74086C33.1088 7.74086 33.8063 8.11551 34.5039 8.93615C35.2014 9.75679 35.3235 10.9342 35.1665 12.0029L33.5099 23.7059C33.196 25.9556 31.3126 27.6129 29.0978 27.6129H10.0721C7.75274 27.6129 5.83447 25.795 5.64264 23.4401L4.03827 3.99266L1.40501 3.52882C0.707458 3.40394 0.219171 2.70818 0.341243 1.99458C0.463314 1.26492 1.14343 0.781451 1.85842 0.890276L6.01757 1.53073C6.61049 1.63956 7.04646 2.1373 7.09878 2.74386L7.43012 6.74004C7.48243 7.3127 7.93584 7.74086 8.49389 7.74086H32.045ZM9.79275 30.4303C8.32789 30.4303 7.14205 31.6434 7.14205 33.1419C7.14205 34.6227 8.32789 35.8358 9.79275 35.8358C11.2402 35.8358 12.426 34.6227 12.426 33.1419C12.426 31.6434 11.2402 30.4303 9.79275 30.4303ZM29.4115 30.4303C27.9467 30.4303 26.7608 31.6434 26.7608 33.1419C26.7608 34.6227 27.9467 35.8358 29.4115 35.8358C30.8589 35.8358 32.0448 34.6227 32.0448 33.1419C32.0448 31.6434 30.8589 30.4303 29.4115 30.4303Z" fill="white"/>
</g>
</svg>
