<svg width="28" height="26" viewBox="0 0 28 26" fill="none" xmlns="http://www.w3.org/2000/svg">
<g id="Group">
<path id="Vector" d="M21.8912 16.094C21.5459 16.4287 21.3872 16.9127 21.4659 17.3873L22.6512 23.9473C22.7512 24.5033 22.5165 25.066 22.0512 25.3873C21.5952 25.7207 20.9885 25.7607 20.4912 25.494L14.5858 22.414C14.3805 22.3047 14.1525 22.246 13.9192 22.2393H13.5578C13.4325 22.258 13.3099 22.298 13.1979 22.3593L7.29118 25.454C6.99918 25.6007 6.66852 25.6527 6.34452 25.6007C5.55518 25.4513 5.02852 24.6993 5.15785 23.906L6.34452 17.346C6.42318 16.8673 6.26452 16.3807 5.91918 16.0407L1.10452 11.374C0.70185 10.9833 0.56185 10.3967 0.74585 9.86732C0.924517 9.33932 1.38052 8.95399 1.93118 8.86732L8.55785 7.90598C9.06185 7.85398 9.50452 7.54732 9.73118 7.09398L12.6512 1.10732C12.7205 0.973984 12.8099 0.851318 12.9179 0.747318L13.0378 0.653984C13.1005 0.584651 13.1725 0.527318 13.2525 0.480651L13.3979 0.427318L13.6245 0.333984H14.1859C14.6872 0.385984 15.1285 0.685984 15.3592 1.13398L18.3179 7.09398C18.5312 7.52998 18.9459 7.83265 19.4245 7.90598L26.0512 8.86732C26.6112 8.94732 27.0792 9.33398 27.2645 9.86732C27.4392 10.402 27.2885 10.9887 26.8779 11.374L21.8912 16.094Z" fill="#01B763"/>
</g>
</svg>
