<svg width="20" height="20" viewBox="0 0 20 20" fill="none" xmlns="http://www.w3.org/2000/svg">
<g id="search">
<path id="Union" fill-rule="evenodd" clip-rule="evenodd" d="M3.01367 8.3111C3.01367 5.38433 5.38628 3.01172 8.31305 3.01172C11.2398 3.01172 13.6124 5.38433 13.6124 8.3111C13.6124 11.2379 11.2398 13.6105 8.31305 13.6105C5.38628 13.6105 3.01367 11.2379 3.01367 8.3111ZM8.31305 1.01172C4.28172 1.01172 1.01367 4.27976 1.01367 8.3111C1.01367 12.3424 4.28172 15.6105 8.31305 15.6105C9.96814 15.6105 11.4946 15.0596 12.719 14.1313L16.4252 17.8374C16.8157 18.2279 17.4488 18.2279 17.8394 17.8374C18.2299 17.4469 18.2299 16.8137 17.8394 16.4232L14.1332 12.7171C15.0616 11.4926 15.6124 9.96619 15.6124 8.3111C15.6124 4.27976 12.3444 1.01172 8.31305 1.01172Z" fill="black"/>
</g>
</svg>
