<svg width="20" height="20" viewBox="0 0 20 20" fill="none" xmlns="http://www.w3.org/2000/svg">
<g id="teenyicons:send-outline">
<path id="Vector" d="M17.4659 2.53412L17.9565 2.74423C17.9987 2.6462 18.0106 2.53774 17.9905 2.43291C17.9704 2.32807 17.9193 2.23168 17.8438 2.1562C17.7683 2.08072 17.6719 2.02963 17.5671 2.00953C17.4623 1.98944 17.3538 2.00127 17.2558 2.0435L17.4659 2.53412ZM2.53386 8.93356L2.32374 8.44293C2.2333 8.48158 2.15531 8.54448 2.09839 8.62469C2.04146 8.7049 2.00783 8.79929 2.00121 8.89742C1.99459 8.99555 2.01523 9.0936 2.06086 9.18073C2.10649 9.26786 2.17532 9.34067 2.25975 9.39112L2.53386 8.93356ZM11.0664 17.4661L10.6089 17.7403C10.6593 17.8247 10.7321 17.8935 10.8193 17.9391C10.9064 17.9848 11.0045 18.0054 11.1026 17.9988C11.2007 17.9922 11.2951 17.9585 11.3753 17.9016C11.4555 17.8447 11.5184 17.7667 11.5571 17.6763L11.0664 17.4661ZM17.2558 2.0435L2.32374 8.44293L2.74397 9.42418L17.676 3.02474L17.2558 2.0435ZM2.25975 9.39112L7.59261 12.5919L8.14083 11.6768L2.80797 8.47706L2.25975 9.39112ZM7.4081 12.4074L10.6078 17.7403L11.5229 17.192L8.32322 11.8592L7.4081 12.4074ZM11.556 17.6763L17.9554 2.74423L16.9742 2.324L10.5748 17.256L11.556 17.6763ZM17.0883 2.15762L7.48916 11.7568L8.24429 12.5108L17.8434 2.91169L17.0883 2.15655V2.15762Z" fill="#696969"/>
</g>
</svg>
