<svg width="16" height="16" viewBox="0 0 16 16" fill="none" xmlns="http://www.w3.org/2000/svg">
<g id="material-symbols:share">
<path id="Vector" d="M12 14.6663C11.4444 14.6663 10.9722 14.4719 10.5833 14.083C10.1944 13.6941 10 13.2219 10 12.6663C10 12.5886 10.0056 12.5079 10.0167 12.4243C10.0278 12.3408 10.0444 12.2659 10.0667 12.1997L5.36667 9.46634C5.17778 9.63301 4.96667 9.76367 4.73333 9.85834C4.5 9.95301 4.25556 10.0001 4 9.99967C3.44444 9.99967 2.97222 9.80523 2.58333 9.41634C2.19444 9.02745 2 8.55523 2 7.99967C2 7.44412 2.19444 6.9719 2.58333 6.58301C2.97222 6.19412 3.44444 5.99967 4 5.99967C4.25556 5.99967 4.5 6.04701 4.73333 6.14167C4.96667 6.23634 5.17778 6.36679 5.36667 6.53301L10.0667 3.79967C10.0444 3.73301 10.0278 3.65812 10.0167 3.57501C10.0056 3.4919 10 3.41123 10 3.33301C10 2.77745 10.1944 2.30523 10.5833 1.91634C10.9722 1.52745 11.4444 1.33301 12 1.33301C12.5556 1.33301 13.0278 1.52745 13.4167 1.91634C13.8056 2.30523 14 2.77745 14 3.33301C14 3.88856 13.8056 4.36079 13.4167 4.74967C13.0278 5.13856 12.5556 5.33301 12 5.33301C11.7444 5.33301 11.5 5.2859 11.2667 5.19167C11.0333 5.09745 10.8222 4.96679 10.6333 4.79967L5.93333 7.53301C5.95556 7.59967 5.97222 7.67478 5.98333 7.75834C5.99444 7.8419 6 7.92234 6 7.99967C6 8.07745 5.99444 8.15812 5.98333 8.24167C5.97222 8.32523 5.95556 8.40012 5.93333 8.46634L10.6333 11.1997C10.8222 11.033 11.0333 10.9026 11.2667 10.8083C11.5 10.7141 11.7444 10.6668 12 10.6663C12.5556 10.6663 13.0278 10.8608 13.4167 11.2497C13.8056 11.6386 14 12.1108 14 12.6663C14 13.2219 13.8056 13.6941 13.4167 14.083C13.0278 14.4719 12.5556 14.6663 12 14.6663Z" fill="white"/>
</g>
</svg>
