<svg width="21" height="22" viewBox="0 0 21 22" fill="none" xmlns="http://www.w3.org/2000/svg">
<g id="Group">
<path id="Vector" fill-rule="evenodd" clip-rule="evenodd" d="M14.6135 20.5003H6.26565C3.19929 20.5003 0.846883 19.3927 1.51508 14.9351L2.29311 8.89387C2.70501 6.66962 4.12377 5.81836 5.36862 5.81836H15.5471C16.8103 5.81836 18.1467 6.73369 18.6226 8.89387L19.4007 14.9351C19.9682 18.8893 17.6798 20.5003 14.6135 20.5003Z" stroke="#A0ACBA" stroke-width="1.5" stroke-linecap="round" stroke-linejoin="round"/>
<path id="Vector_2" d="M14.7508 5.59775C14.7508 3.21168 12.8165 1.27738 10.4305 1.27738V1.27738C9.28147 1.27251 8.17786 1.72554 7.36367 2.5363C6.54948 3.34705 6.09179 4.44874 6.0918 5.59775H6.0918" stroke="#A0ACBA" stroke-width="1.5" stroke-linecap="round" stroke-linejoin="round"/>
<path id="Line" d="M13.3961 10.1002H13.3503" stroke="#A0ACBA" stroke-width="1.5" stroke-linecap="round" stroke-linejoin="round"/>
<path id="Line_2" d="M7.56551 10.1002H7.51974" stroke="#A0ACBA" stroke-width="1.5" stroke-linecap="round" stroke-linejoin="round"/>
</g>
</svg>
